<?xml version="1.0" encoding="UTF-8" standalone="no"?>
<svg
   aria-hidden="true"
   role="img"
   class="iconify iconify--logos"
   width="31.303812"
   height="31.332403"
   preserveAspectRatio="xMidYMid"
   viewBox="0 0 251.37315 251.63836"
   version="1.1"
   id="svg6"
   sodipodi:docname="vite.svg"
   xml:space="preserve"
   inkscape:export-filename="vite.svg"
   inkscape:export-xdpi="96"
   inkscape:export-ydpi="96"
   xmlns:inkscape="http://www.inkscape.org/namespaces/inkscape"
   xmlns:sodipodi="http://sodipodi.sourceforge.net/DTD/sodipodi-0.dtd"
   xmlns="http://www.w3.org/2000/svg"
   xmlns:svg="http://www.w3.org/2000/svg"><sodipodi:namedview
     id="namedview6"
     pagecolor="#ffffff"
     bordercolor="#000000"
     borderopacity="0.25"
     inkscape:showpageshadow="2"
     inkscape:pageopacity="0.0"
     inkscape:pagecheckerboard="0"
     inkscape:deskcolor="#d1d1d1" /><defs
     id="defs5" /><g
     id="g6"
     transform="translate(-2.0258328,-2.7992868)"><path
       style="display:inline;fill:#fdf7ef"
       d="m 20.745337,253.20104 c -2.71115,-0.75895 -5.272007,-1.3995 -5.690794,-1.42343 -0.418788,-0.0239 -2.723573,-1.85214 -5.1217451,-4.0627 C 1.5003819,239.94218 2.0137601,247.67068 2.0137601,128.50005 2.0137601,9.6512835 1.5361204,17.024977 9.7235498,9.4780676 17.301257,2.4931813 11.85609,2.8013123 127.7125,2.8013123 c 115.8564,0 110.41124,-0.308131 117.98894,6.6767553 8.18743,7.5469094 7.70979,0.1732159 7.70979,119.0219824 0,117.80437 0.39984,111.18888 -7.16648,118.57375 -7.7689,7.58259 -0.11425,7.10214 -116.56051,7.31607 -86.567945,0.15904 -104.836157,-0.0403 -108.938903,-1.18883 z M 163.90532,206.28305 c 2.35486,-1.13997 5.39657,-3.53452 6.75936,-5.32124 3.06756,-4.02177 7.27108,-12.55905 6.67277,-13.55227 -0.24377,-0.40468 -1.81944,-0.0241 -3.50147,0.84569 -7.39807,3.82569 -21.84883,3.42606 -39.45381,-1.09107 -10.36558,-2.65963 -23.40321,-6.39971 -24.58243,-7.05192 -0.363,-0.20076 1.49803,-4.46463 4.13561,-9.47525 5.15168,-9.78667 12.40614,-27.65772 17.74321,-43.70959 l 3.30911,-9.95257 8.93229,-1.15376 c 22.28212,-2.87815 39.60656,-18.890845 43.21218,-39.940335 2.25358,-13.156288 -3.17619,-23.062528 -14.35675,-26.19289 -19.21244,-5.37915 -35.06373,9.86172 -47.61926,45.785477 -3.62891,10.383008 -3.77159,10.497938 -7.74792,6.240918 -1.8586,-1.989787 -3.88294,-5.488318 -4.49855,-7.774508 -1.28312,-4.765123 -0.48118,-12.821266 1.70002,-17.078284 l 1.45409,-2.837915 -3.75461,0.704368 c -8.06725,1.513426 -13.468642,8.251576 -13.468642,16.801932 0,8.188431 5.819822,15.771987 15.481642,20.173457 l 4.32943,1.97228 -2.72932,8.64458 c -10.35538,32.79868 -18.456689,53.50302 -20.933942,53.50043 -0.708637,-7.4e-4 -5.059392,-0.6656 -9.668346,-1.47746 -10.49614,-1.84889 -19.784701,-1.8891 -24.056694,-0.10414 -7.013694,2.93051 -8.582073,10.25075 -3.653851,17.05396 9.504849,13.12106 24.62477,14.33677 38.602669,3.10383 l 4.040724,-3.24722 5.59639,2.11905 c 3.07801,1.16548 8.9237,3.52993 12.99043,5.25433 17.01848,7.21629 25.79095,9.78902 33.45486,9.81139 5.46602,0.016 8.4177,-0.50551 11.61081,-2.05127 z M 67.574278,191.41387 c -7.40049,-3.80776 -6.226881,-9.67671 1.935043,-9.67671 4.07537,0 16.507082,3.25969 17.955448,4.70806 0.64891,0.64891 -0.227434,1.90028 -2.59589,3.70679 -5.010729,3.82187 -11.411483,4.28888 -17.294601,1.26186 z m 70.982812,-83.86614 c 0,-2.62481 7.98368,-23.905454 12.37528,-32.98653 5.60809,-11.596593 10.57693,-17.043967 15.54671,-17.043967 7.35899,0 8.49239,8.65016 2.95727,22.569984 -5.92116,14.890667 -16.62445,25.782253 -27.67517,28.162043 -2.42742,0.52275 -3.20409,0.3527 -3.20409,-0.70153 z"
       id="path12" /><path
       style="display:inline;fill:#d479fd"
       d="m 142.00765,205.98774 c -6.03665,-1.48721 -12.61683,-3.94735 -26.67679,-9.9737 -5.9325,-2.54277 -11.76475,-5.00221 -12.96055,-5.46542 -1.74501,-0.67595 -3.009939,-0.1404 -6.408167,2.71311 -6.318223,5.30544 -11.125239,7.16039 -18.620547,7.18536 -8.040636,0.0268 -13.761425,-2.69665 -18.393702,-8.75647 -5.383493,-7.04255 -3.99857,-14.11612 3.307635,-16.89394 3.617403,-1.37533 15.654803,-1.09752 23.064453,0.53231 11.179905,2.45914 11.039676,2.51654 15.052618,-6.1617 1.9432,-4.20228 5.28458,-12.7424 7.42529,-18.97805 5.87707,-17.11918 12.14123,-36.70053 11.81996,-36.94839 -0.1569,-0.12105 -3.12644,-1.71559 -6.59898,-3.54342 -6.80645,-3.58269 -11.17066,-8.52022 -13.037067,-14.749715 -1.371649,-4.578158 0.09626,-9.586297 4.169577,-14.225552 2.64871,-3.016714 8.3016,-6.259276 9.25316,-5.307718 0.2293,0.2293 -0.20909,2.174496 -0.97421,4.322658 -0.76512,2.148163 -1.40626,5.902142 -1.42476,8.342176 -0.0575,7.583344 5.94399,17.745701 10.47993,17.745701 0.67168,0 1.86006,-2.1073 2.64083,-4.68289 4.64118,-15.310314 13.83662,-33.410904 21.24375,-41.816867 8.26111,-9.375103 19.83559,-12.186584 30.23498,-7.34418 8.4395,3.929794 11.89999,10.368847 10.9865,20.442969 -1.18394,13.056676 -9.26356,26.766048 -19.95819,33.864738 -7.5921,5.03935 -13.39616,7.12805 -23.23579,8.36184 -4.50216,0.56452 -8.48763,1.36064 -8.85661,1.76916 -0.36899,0.40852 -2.78152,6.95376 -5.3612,14.54498 -5.89661,17.352 -11.24586,30.22094 -16.94336,40.76144 -2.44602,4.5252 -4.06824,8.57506 -3.60493,8.99968 0.96007,0.8799 18.21309,5.77693 31.40442,8.91371 11.00225,2.61623 25.67437,2.91203 31.79439,0.641 2.30448,-0.85516 4.18996,-1.33794 4.18996,-1.07285 0,1.63973 -5.20473,10.21781 -7.54858,12.44107 -5.85074,5.54969 -15.27662,7.09513 -26.46402,4.33896 z M 81.065844,193.50491 c 3.138908,-1.18596 8.197628,-5.67877 8.197628,-7.28058 0,-1.46175 -14.437007,-5.47304 -19.697978,-5.47304 -7.25389,0 -9.881047,4.12491 -5.872682,9.22072 3.168127,4.02762 11.551508,5.73243 17.373032,3.5329 z m 66.105246,-86.15965 c 10.5417,-4.90793 19.68616,-16.213886 24.45537,-30.235942 4.37667,-12.867936 2.47774,-20.577957 -5.06821,-20.577957 -7.91406,0 -15.97168,12.389348 -25.32655,38.941961 -5.34075,15.159018 -5.21992,14.296678 -2.00164,14.285518 1.52767,-0.005 5.10114,-1.09141 7.94103,-2.41358 z"
       id="path6" /></g></svg>
